<?xml version="1.0" encoding="UTF-8" standalone="no"?>
<!-- Created with Inkscape (http://www.inkscape.org/) -->

<svg
   width="280mm"
   height="430mm"
   viewBox="0 0 280 430"
   version="1.1"
   id="svg11291"
   xml:space="preserve"
   inkscape:version="1.2.1 (9c6d41e410, 2022-07-14)"
   sodipodi:docname="FondoFlisolC.svg"
   xmlns:inkscape="http://www.inkscape.org/namespaces/inkscape"
   xmlns:sodipodi="http://sodipodi.sourceforge.net/DTD/sodipodi-0.dtd"
   xmlns="http://www.w3.org/2000/svg"
   xmlns:svg="http://www.w3.org/2000/svg"><sodipodi:namedview
     id="namedview11293"
     pagecolor="#ffffff"
     bordercolor="#000000"
     borderopacity="0.25"
     inkscape:showpageshadow="2"
     inkscape:pageopacity="0.0"
     inkscape:pagecheckerboard="0"
     inkscape:deskcolor="#d1d1d1"
     inkscape:document-units="mm"
     showgrid="false"
     inkscape:zoom="0.20935045"
     inkscape:cx="1475.994"
     inkscape:cy="673.51181"
     inkscape:window-width="1366"
     inkscape:window-height="699"
     inkscape:window-x="0"
     inkscape:window-y="0"
     inkscape:window-maximized="1"
     inkscape:current-layer="layer1" /><defs
     id="defs11288" /><g
     inkscape:label="Capa 1"
     inkscape:groupmode="layer"
     id="layer1"><g
       id="g41853"
       transform="matrix(0.99794772,0,0,1.0683684,-242.63084,0.12460662)"><path
         style="fill:#b2ffef;fill-opacity:1;stroke-width:0.264583"
         d="M 243.55684,-0.11663263 H 285.7594 L 273.24699,33.690814 Z"
         id="path11340" /><path
         style="fill:#8cffd3;fill-opacity:1;stroke-width:0.264583"
         d="m 286.60175,0.16322304 h 97.0397 L 327.27142,20.496813 Z"
         id="path11672" /><path
         style="fill:#0079ba;fill-opacity:1;stroke-width:0.264583"
         d="m 403.98985,-0.05985913 h 77.1399 L 438.96609,31.165622 Z"
         id="path12487" /><path
         style="fill:#7f50ff;fill-opacity:1;stroke-width:0.264583"
         d="m 481.33031,0.03579206 h 41.93101 L 481.10321,29.308755 Z"
         id="path12489" /><path
         style="fill:#01c7f4;fill-opacity:1;stroke-width:0.264583"
         d="M 243.58091,0.11539852 273.28771,33.789551 257.11649,95.967136 Z"
         id="path12545" /><path
         style="fill:#a7fcff;fill-opacity:1;stroke-width:0.264583"
         d="M 243.44206,0.63006358 257.17264,96.024527 243.55993,86.300814 Z"
         id="path12547" /><path
         style="fill:#01f6e5;fill-opacity:1;stroke-width:0.264583"
         d="M 285.74336,0.21351811 297.77443,69.423626 273.40373,33.707474 Z"
         id="path12549" /><path
         style="fill:#abfaff;fill-opacity:1;stroke-width:0.264583"
         d="M 286.85168,0.46961644 327.57627,20.672997 297.71766,69.047809 285.71189,0.08392619 Z"
         id="path12551" /><path
         style="fill:#14d9c7;fill-opacity:1;stroke-width:0.264583"
         d="m 273.43212,33.805595 24.37995,35.600134 -40.75853,26.684827 z"
         id="path12566" /><path
         style="fill:#b2ffef;fill-opacity:1;stroke-width:0.264583"
         d="m 297.61769,69.337848 29.94747,-48.811105 11.91383,64.243033 z"
         id="path12568" /><path
         style="fill:#268c02;fill-opacity:1;stroke-width:0.264583"
         d="M 327.49419,20.549576 383.51556,0.16291556 339.429,84.553173 Z"
         id="path12570" /><path
         style="fill:#94fe06;fill-opacity:1;stroke-width:0.264583"
         d="M 339.1618,84.848768 383.44027,0.10367354 392.53146,53.752876 Z"
         id="path12572" /><path
         style="fill:#a9fef9;fill-opacity:1;stroke-width:0.264583"
         d="M 392.53948,53.653523 383.55567,0.38939287 441.24876,73.637832 Z"
         id="path12574" /><path
         style="fill:#a6d5ff;fill-opacity:1;stroke-width:0.264583"
         d="m 383.62108,0.224626 h 20.68596 l 36.90469,73.445295 z"
         id="path12576" /><path
         style="fill:#6fc0ff;fill-opacity:1;stroke-width:0.264583"
         d="M 404.27804,0.23820229 439.28575,31.4174 l 1.77171,41.917434 z"
         id="path12578" /><path
         style="fill:#3bbaff;fill-opacity:1;stroke-width:0.264583"
         d="m 481.2075,0.03147232 0.0753,28.37754668 v 1.055864 l -42.35681,1.896978 z"
         id="path12580" /><path
         style="fill:#a85dfe;fill-opacity:1;stroke-width:0.264583"
         d="M 481.19948,29.48895 523.48841,0.1265064 V 39.201555 Z"
         id="path12582" /><path
         style="fill:#7f50ff;fill-opacity:1;stroke-width:0.264583"
         d="M 523.59332,65.777157 V 39.20464 l -18.299,-4.006858 z"
         id="path12584" /><path
         style="fill:#c776ff;fill-opacity:1;stroke-width:0.264583"
         d="m 523.66121,65.964138 -18.47488,-30.85275 -24.11706,-5.536044 13.07521,44.322904 z"
         id="path12586" /><path
         style="fill:#d6a7eb;fill-opacity:1;stroke-width:0.264583"
         d="m 494.06364,73.792725 -12.96722,-44.17727 -41.89336,1.792073 1.97905,42.10935 z"
         id="path12588" /><path
         style="fill:#ea99ff;fill-opacity:1;stroke-width:0.264583"
         d="m 494.49067,73.629191 29.21496,-7.553357 -13.9015,39.154036 z"
         id="path12615" /><path
         style="fill:#701c02;fill-opacity:1;stroke-width:0.264583"
         d="m 523.41991,66.599757 -0.25488,48.190913 -13.34918,-10.02918 z"
         id="path12617" /><path
         style="fill:#e60154;fill-opacity:1;stroke-width:0.264583"
         d="m 509.65417,105.25579 -15.28939,-31.463682 -25.45,58.563822 z"
         id="path12619" /><path
         style="fill:#a85dfe;fill-opacity:1;stroke-width:0.264583"
         d="m 494.49129,73.727928 -53.24932,-0.133911 28.03814,58.546543 z"
         id="path12621" /><path
         style="fill:#32a3ff;fill-opacity:1;stroke-width:0.264583"
         d="M 469.43068,132.26337 441.22654,73.740887 427.64284,116.7111 Z"
         id="path12652" /><path
         style="fill:#039882;fill-opacity:1;stroke-width:0.264583"
         d="M 427.64531,116.77775 441.29258,73.729164 392.45493,53.865189 Z"
         id="path12654" /><path
         style="fill:#028b09;fill-opacity:1;stroke-width:0.264583"
         d="m 392.24203,53.618349 35.40019,63.147671 -41.91434,22.93962 z"
         id="path12656" /><path
         style="fill:#45b201;fill-opacity:1;stroke-width:0.264583"
         d="m 392.23524,54.009594 -52.85993,30.705879 46.15941,54.635957 z"
         id="path12658" /><path
         style="fill:#0184bc;fill-opacity:1;stroke-width:0.264583"
         d="M 385.86179,139.38166 339.08774,84.59267 325.39172,127.80602 Z"
         id="path12693" /><path
         style="fill:#4dd8ff;fill-opacity:1;stroke-width:0.264583"
         d="m 338.99826,84.701895 -41.367,-15.418969 27.78885,58.330554 z"
         id="path12695" /><path
         style="fill:#3bc1ff;fill-opacity:1;stroke-width:0.264583"
         d="m 297.90032,69.262561 27.65,58.793389 -53.43881,-0.51714 z"
         id="path12697" /><path
         style="fill:#14a6cd;fill-opacity:1;stroke-width:0.264583"
         d="M 257.07514,95.864081 297.84355,69.347106 272.36391,127.27963 Z"
         id="path12699" /><path
         style="fill:#039882;fill-opacity:1;stroke-width:0.264583"
         d="M 243.65064,86.245892 V 161.7301 l 13.6664,-65.857381 z"
         id="path12701" /><path
         style="fill:#01143c;fill-opacity:1;stroke-width:0.264583"
         d="m 243.69014,162.23366 13.49052,-66.27393 15.27149,31.80556 z"
         id="path12703" /><path
         style="fill:#24276e;fill-opacity:1;stroke-width:0.264583"
         d="m 272.59162,127.59621 13.11163,44.52037 -42.23403,-9.84713 z"
         id="path12744" /><path
         style="fill:#004384;fill-opacity:1;stroke-width:0.264583"
         d="m 272.64716,127.42588 52.8291,0.54367 -39.69032,43.8897 z"
         id="path12746" /><path
         style="fill:#01143c;fill-opacity:1;stroke-width:0.264583"
         d="m 243.70742,162.26204 v 39.03309 l 41.7496,-29.17423 z"
         id="path12748" /><path
         style="fill:#a665ff;fill-opacity:1;stroke-width:0.264583"
         d="m 285.5607,172.06228 40.02417,-44.08162 2.10865,41.91805 z"
         id="path12750" /><path
         style="fill:#e60154;fill-opacity:1;stroke-width:0.264583"
         d="m 285.61253,172.20174 42.16121,-2.32648 -42.15997,30.92433 z"
         id="path12752" /><path
         style="fill:#b21d00;fill-opacity:1;stroke-width:0.264583"
         d="m 285.47677,172.10177 0.0895,28.81878 -41.79465,0.34249 z"
         id="path12754" /><path
         style="fill:#ffc69e;fill-opacity:1;stroke-width:0.264583"
         d="m 285.81247,200.78355 h 96.99651 L 327.8552,169.83144 Z"
         id="path12756"
         sodipodi:nodetypes="cccc" /><path
         style="fill:#ea99ff;fill-opacity:1;stroke-width:0.264583"
         d="m 382.93178,200.64655 -57.34073,-72.87385 2.04138,41.9199 c 0,0 55.46357,31.50428 55.29935,30.95395 z"
         id="path12758"
         sodipodi:nodetypes="cccc" /><path
         style="fill:#7f50ff;fill-opacity:1;stroke-width:0.264583"
         d="m 325.42196,127.40984 60.39725,12.03847 -2.60356,61.28711 z"
         id="path12809" /><path
         style="fill:#026b89;fill-opacity:1;stroke-width:0.264583"
         d="m 383.54333,200.68049 2.55481,-61.10876 41.59963,-22.96924 z"
         id="path12811" /><path
         style="fill:#c7ffb6;fill-opacity:1;stroke-width:0.264583"
         d="m 383.51433,201.00571 43.96683,-84.35756 11.55467,64.3066 z"
         id="path12813"
         sodipodi:nodetypes="cccc" /><path
         style="fill:#88ceff;fill-opacity:1;stroke-width:0.264583"
         d="M 439.1864,180.82701 427.45216,116.592 469.13879,132.32014 Z"
         id="path12815" /><path
         style="fill:#fed70d;fill-opacity:1;stroke-width:0.264583"
         d="m 439.27032,181.14358 29.98325,-49.05486 10.72898,97.22048 z"
         id="path12817" /><path
         style="fill:#ffc69e;fill-opacity:1;stroke-width:0.264583"
         d="m 383.31932,200.99583 55.91521,-19.89915 41.21763,48.54699 z"
         id="path12819"
         sodipodi:nodetypes="cccc" /><path
         style="fill:#f74401;fill-opacity:1;stroke-width:0.264583"
         d="m 469.10794,132.26275 41.07693,-27.27787 -16.69452,62.11279 z"
         id="path12821" /><path
         style="fill:#f69601;fill-opacity:1;stroke-width:0.264583"
         d="m 493.3552,167.22109 29.96041,33.74512 -13.4942,-95.71474 z"
         id="path12825" /><path
         style="fill:#b21d00;fill-opacity:1;stroke-width:0.264583"
         d="m 510.0158,105.36378 13.3998,9.46022 -0.11293,85.99658 z"
         id="path12827" /><path
         style="fill:#fe6809;fill-opacity:1;stroke-width:0.264583"
         d="m 493.61439,167.30255 -24.6848,-35.20889 11.09492,97.55248 z"
         id="path12829" /><path
         style="fill:#ef4f01;fill-opacity:1;stroke-width:0.264583"
         d="m 523.3866,201.21305 -29.75987,-33.5532 -13.71947,61.70983 z"
         id="path12831" /><path
         style="fill:#ffd237;fill-opacity:1;stroke-width:0.264583"
         d="m 480.0998,229.21293 43.14239,-27.76846 -51.14562,82.73517 z"
         id="path12949" /><path
         style="fill:#ffdf82;fill-opacity:1;stroke-width:0.264583"
         d="m 523.14038,201.6728 v 29.42292 l -50.9605,53.12652 z"
         id="path12951" /><path
         style="fill:#fe6809;fill-opacity:1;stroke-width:0.264583"
         d="m 522.94165,231.38699 -50.70129,53.12158 29.3285,-3.23053 z"
         id="path13013" /><path
         style="fill:#984300;fill-opacity:1;stroke-width:0.264583"
         d="M 523.06137,231.38637 V 340.90758 L 501.87309,281.15029 Z"
         id="path13015" /><path
         style="fill:#b5bb03;fill-opacity:1;stroke-width:0.264583"
         d="m 472.17001,284.29259 29.57041,-3.11269 1.30209,60.16707 z"
         id="path13017" /><path
         style="fill:#638c00;fill-opacity:1;stroke-width:0.264583"
         d="m 501.76757,281.1867 21.45303,60.28862 h -20.10219 z"
         id="path13019" /><path
         style="fill:#b6c40f;fill-opacity:1;stroke-width:0.264583"
         d="m 503.26158,341.65614 h 19.6381 l 0.26168,60.69777 z"
         id="path13021" /><path
         style="fill:#a7a407;fill-opacity:1;stroke-width:0.264583"
         d="m 503.25541,341.47781 19.77635,60.6774 h -26.71878 z"
         id="path13088" /><path
         style="fill:#b6c40f;fill-opacity:1;stroke-width:0.264583"
         d="m 503.0604,341.54443 -6.74001,60.52621 h -18.52054 l -5.65206,-41.39842 z"
         id="path13090" /><path
         style="fill:#c9e900;fill-opacity:1;stroke-width:0.264583"
         d="m 472.16075,284.05129 31.0564,57.59252 -31.15267,18.97533 z"
         id="path13092" /><path
         style="fill:#fff177;fill-opacity:1;stroke-width:0.264583"
         d="m 480.12695,229.34993 -8.07481,54.8581 -29.88575,-19.44804 z"
         id="path13094" /><path
         style="fill:#f48104;fill-opacity:1;stroke-width:0.264583"
         d="m 437.99168,217.21272 41.70762,12.46921 -37.37678,34.55785 z"
         id="path13096" /><path
         style="fill:#984300;fill-opacity:1;stroke-width:0.264583"
         d="m 383.06816,200.81255 55.16851,16.3761 4.06796,47.38251 z"
         id="path13098" /><path
         style="fill:#b5bb03;fill-opacity:1;stroke-width:0.264583"
         d="m 383.36992,201.25625 58.82054,63.07301 -44.47718,16.71798 z"
         id="path13100" /><path
         style="fill:#ef4244;fill-opacity:1;stroke-width:0.264583"
         d="m 383.35079,200.89463 14.20575,79.70644 -4.81712,48.01381 -9.07946,-51.21228 z"
         id="path13102" /><path
         style="fill:#7e6701;fill-opacity:1;stroke-width:0.264583"
         d="m 441.95103,264.75444 30.40719,19.49926 -40.90291,39.15775 z"
         id="path13104" /><path
         style="fill:#638c00;fill-opacity:1;stroke-width:0.264583"
         d="m 442.03125,264.67546 -10.32724,59.36112 -34.15426,-42.80606 z"
         id="path13106" /><path
         style="fill:#00ddba;fill-opacity:1;stroke-width:0.264583"
         d="m 392.86654,328.85123 4.80663,-47.6164 33.84385,42.7968 z"
         id="path13108" /><path
         style="fill:#ffd237;fill-opacity:1;stroke-width:0.264583"
         d="m 431.50345,324.10939 40.68445,-39.59897 -0.29312,75.9637 z"
         id="path13110" /><path
         style="fill:#638c00;fill-opacity:1;stroke-width:0.264583"
         d="m 431.47444,323.97549 40.77147,36.54922 -22.50333,22.84399 z"
         id="path13112" /><path
         style="fill:#969807;fill-opacity:1;stroke-width:0.264583"
         d="m 472.13854,360.57533 5.57122,41.57924 -27.8308,-18.94078 z"
         id="path13192" /><path
         style="fill:#32a3ff;fill-opacity:1;stroke-width:0.264583"
         d="m 450.04373,383.3292 27.5568,18.68099 h -34.02467 z"
         id="path13194" /><path
         style="fill:#0081b5;fill-opacity:1;stroke-width:0.264583"
         d="m 449.82836,383.39892 -6.1803,18.62423 h -61.13283 z"
         id="path13196" /><path
         style="fill:#0184bc;fill-opacity:1;stroke-width:0.264583"
         d="m 431.42137,323.96377 18.64088,59.42282 -43.3701,-24.52804 z"
         id="path13198" /><path
         style="fill:#2ea4fe;fill-opacity:1;stroke-width:0.264583"
         d="m 449.76974,383.20392 -42.75731,-24.42808 -24.0572,43.23435 z"
         id="path13200" /><path
         style="fill:#00bdcb;fill-opacity:1;stroke-width:0.264583"
         d="m 392.85605,328.94563 38.82821,-4.71159 -24.81068,34.58686 z"
         id="path13202" /><path
         style="fill:#b21d00;fill-opacity:1;stroke-width:0.264583"
         d="m 383.07001,402.16261 9.61695,-73.67426 14.16378,30.52694 z"
         id="path13204" /><path
         style="fill:#fe6809;fill-opacity:1;stroke-width:0.264583"
         d="m 325.4633,328.38964 66.98916,0.2894 -9.48551,73.28979 z"
         id="path13206" /><path
         style="fill:#984300;fill-opacity:1;stroke-width:0.264583"
         d="m 325.48614,328.70621 57.51352,73.28485 h -20.44282 z"
         id="path13208" /><path
         style="fill:#4dd8ff;fill-opacity:1;stroke-width:0.264583"
         d="m 325.6293,328.86726 36.89607,72.92076 -34.62327,-30.73673 z"
         id="path13210" /><path
         style="fill:#0184bc;fill-opacity:1;stroke-width:0.264583"
         d="m 327.85705,370.81679 35.02748,31.17427 h -60.18005 z"
         id="path13212" /><path
         style="fill:#026b89;fill-opacity:1;stroke-width:0.264583"
         d="m 327.89717,370.99081 -25.27538,30.97617 -17.4005,-29.17793 z"
         id="path13214" /><path
         style="fill:#0184bc;fill-opacity:1;stroke-width:0.264583"
         d="m 243.56178,402.14594 41.75207,-29.17608 17.3388,28.97304 z"
         id="path13216" /><path
         style="fill:#01628d;fill-opacity:1;stroke-width:0.264583"
         d="m 243.71297,402.36624 v -39.4163 l 41.93782,9.86996 z"
         id="path13309" /><path
         style="fill:#352b2c;fill-opacity:1;stroke-width:0.264583"
         d="m 243.72717,363.07953 v -26.04551 l 17.57822,30.07212 z"
         id="path13311" /><path
         style="fill:#716164;fill-opacity:1;stroke-width:0.264583"
         d="m 243.62349,336.75386 28.35226,-8.03286 13.6843,44.47225 -24.52621,-6.14143 z"
         id="path13313" /><path
         style="fill:#de7c3b;fill-opacity:1;stroke-width:0.264583"
         d="m 271.72829,328.44639 53.82141,-0.18142 -39.76253,44.74006 z"
         id="path13315" /><path
         style="fill:#00bdcb;fill-opacity:1;stroke-width:0.264583"
         d="m 285.99637,372.75574 39.48483,-44.21862 2.34253,42.41482 z"
         id="path13317" /><path
         style="fill:#9e1618;fill-opacity:1;stroke-width:0.264583"
         d="m 383.43472,277.6797 9.19177,50.72907 -53.07715,-42.51974 z"
         id="path13319" /><path
         style="fill:#fed70d;fill-opacity:1;stroke-width:0.264583"
         d="m 339.11613,285.5848 53.63069,43.02698 -67.11998,-0.11971 z"
         id="path13321"
         sodipodi:nodetypes="cccc" /><path
         style="fill:#fff177;fill-opacity:1;stroke-width:0.264583"
         d="m 297.66582,270.23372 41.55892,15.32392 -13.65529,43.18251 z"
         id="path13323"
         sodipodi:nodetypes="cccc" /><path
         style="fill:#984300;fill-opacity:1;stroke-width:0.264583"
         d="m 297.85404,270.51759 27.57162,57.94978 -53.79549,0.3925 z"
         id="path14586"
         sodipodi:nodetypes="cccc" /><path
         style="fill:#b35400;fill-opacity:1;stroke-width:0.264583"
         d="m 297.64484,270.59472 -40.75915,26.19115 14.75189,31.721 z"
         id="path15623" /><path
         style="fill:#63595a;fill-opacity:1;stroke-width:0.264583"
         d="m 256.9511,296.84572 14.69388,31.87036 -28.51517,7.97608 z"
         id="path15625" /><path
         style="fill:#716164;fill-opacity:1;stroke-width:0.264583"
         d="m 256.75054,297.34928 -13.13199,38.0593 V 287.2442 Z"
         id="path15627" /><path
         style="fill:#c12b2c;fill-opacity:1;stroke-width:0.264583"
         d="m 383.3798,201.06618 -0.0222,76.49626 -44.13593,8.11183 z"
         id="path15629" /><path
         style="fill:#ff8f29;fill-opacity:1;stroke-width:0.264583"
         d="m 339.37408,285.56876 43.81812,-84.70375 -55.59186,20.81863 z"
         id="path15735" /><path
         style="fill:#fe6809;fill-opacity:1;stroke-width:0.264583"
         d="m 285.58415,200.78663 h 98.03076 l -56.20896,20.77668 z"
         id="path15737" /><path
         style="fill:#e60154;fill-opacity:1;stroke-width:0.264583"
         d="m 297.76702,270.19607 41.65704,15.26408 -11.93852,-63.74627 z"
         id="path15739" /><path
         style="fill:#f74401;fill-opacity:1;stroke-width:0.264583"
         d="m 285.7014,201.10815 41.60211,20.60449 -29.68274,48.11317 z"
         id="path15741" /><path
         style="fill:#fff177;fill-opacity:1;stroke-width:0.264583"
         d="m 243.42046,201.2581 h 42.18714 l -12.10081,33.75808 z"
         id="path15743" /><path
         style="fill:#fed70d;fill-opacity:1;stroke-width:0.264583"
         d="M 285.57859,201.37103 297.69606,270.70148 273.637,234.99397 Z"
         id="path15745" /><path
         style="fill:#f69601;fill-opacity:1;stroke-width:0.264583"
         d="m 256.88075,296.68464 40.58451,-26.11151 -24.01463,-35.40329 z"
         id="path15747" /><path
         style="fill:#984300;fill-opacity:1;stroke-width:0.264583"
         d="m 256.66477,297.43815 -12.8401,-95.84249 v 85.5171 z"
         id="path15749" /><path
         style="fill:#f74401;fill-opacity:1;stroke-width:0.264583"
         d="m 243.98573,201.79992 29.30445,33.34894 -16.59394,62.38986 z"
         id="path15751" /></g></g></svg>
