<?xml version="1.0" encoding="UTF-8" standalone="no"?>
<!-- Created with Inkscape (http://www.inkscape.org/) -->

<svg
   width="28cm"
   height="43cm"
   viewBox="0 0 280 430"
   version="1.1"
   id="svg5"
   xml:space="preserve"
   inkscape:version="1.2.2 (b0a8486541, 2022-12-01)"
   sodipodi:docname="FondoFlisolE.svg"
   xmlns:inkscape="http://www.inkscape.org/namespaces/inkscape"
   xmlns:sodipodi="http://sodipodi.sourceforge.net/DTD/sodipodi-0.dtd"
   xmlns="http://www.w3.org/2000/svg"
   xmlns:svg="http://www.w3.org/2000/svg"><sodipodi:namedview
     id="namedview7"
     pagecolor="#ffffff"
     bordercolor="#000000"
     borderopacity="0.25"
     inkscape:showpageshadow="2"
     inkscape:pageopacity="0.0"
     inkscape:pagecheckerboard="0"
     inkscape:deskcolor="#d1d1d1"
     inkscape:document-units="mm"
     showgrid="false"
     inkscape:zoom="0.35355339"
     inkscape:cx="636.3961"
     inkscape:cy="729.73419"
     inkscape:window-width="1366"
     inkscape:window-height="699"
     inkscape:window-x="0"
     inkscape:window-y="0"
     inkscape:window-maximized="1"
     inkscape:current-layer="layer1" /><defs
     id="defs2" /><g
     inkscape:label="Capa 1"
     inkscape:groupmode="layer"
     id="layer1"><path
       style="fill:#6bd938;stroke-width:0.264583;fill-opacity:1"
       d="M 0.03767241,84.664691 59.425493,54.80849 83.069487,0.03439908 H -0.28701735 Z"
       id="path1689"
       sodipodi:nodetypes="ccccc" /><path
       style="fill:#71ddcd;fill-opacity:1;stroke-width:0.264583"
       d="M 83.074205,-0.14243066 98.934065,-0.05081759 103.09315,27.933594 59.432118,54.806802 Z"
       id="path4028"
       sodipodi:nodetypes="ccccc" /><path
       style="fill:#7ee9fb;fill-opacity:1;stroke-width:0.264583"
       d="M 98.924238,0.13007153 H 172.69254 L 103.08512,28.12027 Z"
       id="path4030"
       sodipodi:nodetypes="cccc" /><path
       style="fill:#7df682;fill-opacity:1;stroke-width:0.264583"
       d="m 172.68387,0.12711536 h 16.11676 L 172.79056,35.383089 103.06043,28.122761 Z"
       id="path4032" /><path
       style="fill:#5bc153;fill-opacity:1;stroke-width:0.264583"
       d="M 172.78881,35.392402 188.80049,0.12956764 h 5.90717 L 210.39057,67.654061 Z"
       id="path4130" /><path
       style="fill:#4c9d7d;fill-opacity:1;stroke-width:0.264583"
       d="m 194.7083,0.13049106 h 27.47839 L 210.42049,67.717182 Z"
       id="path4132" /><path
       style="fill:#4eaaa4;fill-opacity:1;stroke-width:0.264583"
       d="m 222.1868,0.13379351 h 23.42339 L 210.42028,67.715672 Z"
       id="path4134" /><path
       style="fill:#91fe8b;fill-opacity:1;stroke-width:0.264583"
       d="M 210.42044,67.715232 245.6019,0.14433873 h 3.47546 L 247.16772,142.5619 Z"
       id="path4136"
       sodipodi:nodetypes="ccccc" /><path
       style="fill:#7a6ed4;fill-opacity:1;stroke-width:0.264583"
       d="m 249.0787,0.14568716 h 27.047 L 247.16149,142.54987 Z"
       id="path4138" /><path
       style="fill:#092b6b;fill-opacity:1;stroke-width:0.264583"
       d="m 276.12387,0.14846966 h 3.85085 V 103.14441 l -7.39949,12.34789 -25.41219,27.05378 z"
       id="path4140" /><path
       style="fill:#7ebddf;fill-opacity:1;stroke-width:0.264583"
       d="m 279.96642,103.26618 v 6.82408 l -7.39074,5.39588 z"
       id="path4142" /><path
       style="fill:#ffff37;fill-opacity:1;stroke-width:0.264583"
       d="m 279.96486,110.09166 -0.0235,30.09823 -6.42425,4.22545 -26.35538,-1.86708 25.42307,-27.06617 z"
       id="path4160"
       sodipodi:nodetypes="cccccc" /><path
       style="fill:#bafe2b;fill-opacity:1;stroke-width:0.264583"
       d="m 210.41135,67.708763 36.74904,74.839257 3.08797,47.46811 -30.54442,-45.63662 z"
       id="path4162" /><path
       style="fill:#feffc1;fill-opacity:1;stroke-width:0.264583"
       d="m 247.17364,142.55438 26.34234,1.86218 -23.26455,45.60346 z"
       id="path4164" /><path
       style="fill:#ffe538;fill-opacity:1;stroke-width:0.264583"
       d="m 279.94094,140.19127 v 43.90808 l -29.68791,5.91954 23.2643,-45.60406 z"
       id="path4166" /><path
       style="fill:#f27314;fill-opacity:1;stroke-width:0.264583"
       d="m 250.25053,190.0205 29.69035,-5.91973 V 349.37914 L 231.1001,302.70143 220.06725,238.00491 Z"
       id="path4168" /><path
       style="fill:#d93457;fill-opacity:1;stroke-width:0.264583"
       d="m 250.24947,190.02004 -30.18375,47.98481 -13.62871,-37.55714 z"
       id="path4170" /><path
       style="fill:#401ec3;fill-opacity:1;stroke-width:0.264583"
       d="m 250.24923,190.01827 -30.54566,-45.63688 -86.18164,8.59502 72.91389,47.47217 z"
       id="path4172" /><path
       style="fill:#54b4fb;fill-opacity:1;stroke-width:0.264583"
       d="M 219.70258,144.38074 210.40857,67.670118 172.78878,35.394053 Z"
       id="path4174" /><path
       style="fill:#1c55d0;fill-opacity:1;stroke-width:0.264583"
       d="M 219.70255,144.38085 172.78391,35.383898 103.08682,28.128177 143.92687,88.788376 Z"
       id="path4176" /><path
       style="fill:#6ad3cc;fill-opacity:1;stroke-width:0.264583"
       d="M 219.70305,144.38132 143.91079,88.812988 81.911583,104.66524 133.52634,152.97776 Z"
       id="path4178" /><path
       style="fill:#b7ffd7;fill-opacity:1;stroke-width:0.264583"
       d="m 103.08534,28.1291 40.8537,60.678887 -62.029772,15.856733 z"
       id="path4180" /><path
       style="fill:#b8ff4b;fill-opacity:1;stroke-width:0.264583"
       d="m 103.05922,27.955152 0.026,0.176594 L 81.908077,104.66584 59.430245,54.814821 Z"
       id="path4182" /><path
       style="fill:#86fb16;fill-opacity:1;stroke-width:0.264583"
       d="M 81.907858,104.66912 59.4273,54.811628 0.0441672,84.651505 V 125.0569 l 31.7559578,24.44534 z"
       id="path4212" /><path
       style="fill:#5abd2f;fill-opacity:1;stroke-width:0.264583"
       d="M 0.04406627,125.05703 31.799352,149.50294 9.7293416,203.31523 0.0414966,179.08704 Z"
       id="path4243" /><path
       style="fill:#4daa72;fill-opacity:1;stroke-width:0.264583"
       d="M 0.04143804,179.10866 V 219.1206 L 9.7276286,203.31564 Z"
       id="path4245" /><path
       style="fill:#7fe917;fill-opacity:1;stroke-width:0.264583"
       d="M 9.7290288,203.31868 81.910657,104.66717 31.799194,149.50365 Z"
       id="path4247" /><path
       style="fill:#a3feae;fill-opacity:1;stroke-width:0.264583"
       d="M 81.91102,104.66781 41.008866,199.26845 67.78913,298.02603 9.7361951,203.32289 Z"
       id="path4249" /><path
       style="fill:#e1ff20;fill-opacity:1;stroke-width:0.264583"
       d="M 81.912065,104.66956 133.52289,152.9739 41.009003,199.27191 Z"
       id="path4251" /><path
       style="fill:#fed32b;fill-opacity:1;stroke-width:0.264583"
       d="m 41.011305,199.27288 92.511005,-46.2974 -6.21703,79.73156 z"
       id="path4253" /><path
       style="fill:#eb3f32;fill-opacity:1;stroke-width:0.264583"
       d="m 133.52211,152.97742 72.91269,47.47069 -79.13057,32.26 z"
       id="path4255" /><path
       style="fill:#fdad0e;fill-opacity:1;stroke-width:0.264583"
       d="m 206.43753,200.44935 13.63008,37.55889 -92.7741,-5.30027 z"
       id="path4257"
       sodipodi:nodetypes="cccc" /><path
       style="fill:#ed6501;fill-opacity:1;stroke-width:0.264583"
       d="M 220.06747,238.00942 182.74621,281.16268 90.84665,316.73919 127.293,232.70222 Z"
       id="path4259" /><path
       style="fill:#a3ed23;fill-opacity:1;stroke-width:0.264583"
       d="M 41.010125,199.27288 127.2912,232.70425 67.808651,298.05738 Z"
       id="path4261" /><path
       style="fill:#4ca592;fill-opacity:1;stroke-width:0.264583"
       d="M 67.809741,298.05931 127.29099,232.7058 90.843641,316.74062 Z"
       id="path4263" /><path
       style="fill:#8bfffe;fill-opacity:1;stroke-width:0.264583"
       d="M 67.809014,298.05791 33.470601,291.10265 9.7314471,203.31567 Z"
       id="path4305" /><path
       style="fill:#0434b4;fill-opacity:1;stroke-width:0.264583"
       d="M 33.466545,291.10511 19.926313,364.21332 9.729627,203.32133 Z"
       id="path4307" /><path
       style="fill:#154ded;fill-opacity:1;stroke-width:0.264583"
       d="M 19.918713,364.21467 9.7278501,203.31693 0.04169642,219.12163 v 133.81756 z"
       id="path4309" /><path
       style="fill:#3d8fc1;fill-opacity:1;stroke-width:0.264583"
       d="m 33.473392,291.10852 34.335654,6.95137 -47.875653,66.15645 z"
       id="path4354" /><path
       style="fill:#010b7e;fill-opacity:1;stroke-width:0.264583"
       d="m 19.925721,364.21927 29.233552,65.77542 H 0.03562444 v -77.05627 z"
       id="path4356" /><path
       style="fill:#08384c;fill-opacity:1;stroke-width:0.264583"
       d="m 49.159059,429.99379 h 5.062016 L 67.811702,298.05587 19.929428,364.22279 Z"
       id="path4403"
       sodipodi:nodetypes="ccccc" /><path
       style="fill:#266876;fill-opacity:1;stroke-width:0.264583"
       d="m 54.221419,429.99339 h 6.111785 L 85.113285,398.18516 67.812683,298.05676 Z"
       id="path4405"
       sodipodi:nodetypes="ccccc" /><path
       style="fill:#235ac1;fill-opacity:1;stroke-width:0.264583"
       d="m 67.814351,298.06196 23.04425,18.70591 -5.742924,81.41956 z"
       id="path4407" /><path
       style="fill:#420ec2;fill-opacity:1;stroke-width:0.264583"
       d="M 90.862657,316.73815 156.8505,409.6799 85.118148,398.18542 Z"
       id="path4409" /><path
       style="fill:#000094;fill-opacity:1;stroke-width:0.264583"
       d="M 60.335786,429.99355 H 80.370803 L 156.85284,409.68101 85.114349,398.18667 Z"
       id="path4411" /><path
       style="fill:#010080;fill-opacity:1;stroke-width:0.264583"
       d="m 80.373857,429.9936 h 56.723223 l 19.73004,-20.30296 z"
       id="path4463" /><path
       style="fill:#000285;fill-opacity:1;stroke-width:0.264583"
       d="m 137.10232,429.99159 h 12.07614 l 7.68205,-20.30571 z"
       id="path4465" /><path
       style="fill:#7536e8;fill-opacity:1;stroke-width:0.264583"
       d="m 149.18033,429.99157 7.68317,-20.29952 5.51321,20.28245 z"
       id="path4467" /><path
       style="fill:#56017b;fill-opacity:1;stroke-width:0.264583"
       d="m 162.39303,429.97215 h 7.51883 l -13.03308,-20.28434 z"
       id="path4469" /><path
       style="fill:#ba3ae7;fill-opacity:1;stroke-width:0.264583"
       d="m 169.91294,429.97199 h 37.80655 l -50.83735,-20.28547 z"
       id="path4471" /><path
       style="fill:#800190;fill-opacity:1;stroke-width:0.264583"
       d="m 207.71915,429.97101 h 16.81374 l -15.80077,-31.27357 -51.86208,10.97759 z"
       id="path4528" /><path
       style="fill:#dc1f01;fill-opacity:1;stroke-width:0.264583"
       d="m 224.53491,429.96995 h 5.72093 l 0.84343,-127.26635 -22.36732,95.99316 z"
       id="path4530"
       sodipodi:nodetypes="ccccc" /><path
       style="fill:#f36503;fill-opacity:1;stroke-width:0.264583"
       d="m 230.25752,429.97064 h 42.86407 l 6.82572,-9.56223 v -71.01083 l -48.84819,-46.69385 z"
       id="path4532" /><path
       style="fill:#ffcc5a;fill-opacity:1;stroke-width:0.264583"
       d="m 273.12268,429.97027 h 6.84223 v -9.55598 z"
       id="path4534" /><path
       style="fill:#d81c64;fill-opacity:1;stroke-width:0.264583"
       d="m 156.86159,409.68205 51.8639,-10.98691 22.34374,-95.98384 z"
       id="path4536" /><path
       style="fill:#b40000;fill-opacity:1;stroke-width:0.264583"
       d="m 156.85895,409.68355 74.23454,-107.00916 -11.02655,-64.6639 z"
       id="path4538" /><path
       style="fill:#d0000f;fill-opacity:1;stroke-width:0.264583"
       d="M 156.85929,409.68271 220.06626,238.01218 182.7563,281.22176 Z"
       id="path4540" /><path
       style="fill:#95001d;fill-opacity:1;stroke-width:0.264583"
       d="M 156.85779,409.68464 182.76776,281.15373 90.860596,316.73374 Z"
       id="path4542" /></g></svg>
