<?xml version="1.0" encoding="UTF-8" standalone="no"?>
<!-- Created with Inkscape (http://www.inkscape.org/) -->

<svg
   width="27.940001cm"
   height="43.18cm"
   viewBox="0 0 279.40001 431.8"
   version="1.1"
   id="svg110603"
   xml:space="preserve"
   inkscape:version="1.2.2 (b0a8486541, 2022-12-01)"
   sodipodi:docname="FondoFlisolI.svg"
   xmlns:inkscape="http://www.inkscape.org/namespaces/inkscape"
   xmlns:sodipodi="http://sodipodi.sourceforge.net/DTD/sodipodi-0.dtd"
   xmlns="http://www.w3.org/2000/svg"
   xmlns:svg="http://www.w3.org/2000/svg"><sodipodi:namedview
     id="namedview110605"
     pagecolor="#ffffff"
     bordercolor="#000000"
     borderopacity="0.25"
     inkscape:showpageshadow="2"
     inkscape:pageopacity="0.0"
     inkscape:pagecheckerboard="0"
     inkscape:deskcolor="#d1d1d1"
     inkscape:document-units="mm"
     showgrid="false"
     inkscape:zoom="0.1767767"
     inkscape:cx="571.34228"
     inkscape:cy="1023.8906"
     inkscape:window-width="1366"
     inkscape:window-height="699"
     inkscape:window-x="0"
     inkscape:window-y="0"
     inkscape:window-maximized="1"
     inkscape:current-layer="layer1"
     showguides="false" /><defs
     id="defs110600" /><g
     inkscape:label="Capa 1"
     inkscape:groupmode="layer"
     id="layer1"><g
       id="g128750"
       transform="translate(0,-0.00135247)"><path
         style="fill:#ffeb79;fill-opacity:1;stroke-width:0.264583"
         d="M 0.05609006,58.680979 27.680353,84.436182 44.783152,0.00178445 H -9.689331e-5 V 58.641844 Z"
         id="path1695" /><path
         style="fill:#fcc80e;fill-opacity:1;stroke-width:0.264583"
         d="M 27.680671,84.437042 44.783747,0.00273724 h 56.572793 z"
         id="path1757" /><path
         style="fill:#fede54;fill-opacity:1;stroke-width:0.264583"
         d="M 27.681303,84.439621 101.35723,0.00257575 78.015242,53.498588 Z"
         id="path1759" /><path
         style="fill:#ffecb1;fill-opacity:1;stroke-width:0.264583"
         d="M 78.016009,53.499355 101.35728,0.00322978 147.7269,34.190418 Z"
         id="path1769" /><path
         style="fill:#ffea9b;fill-opacity:1;stroke-width:0.264583"
         d="M 101.35809,0.00381921 H 269.95495 L 147.72556,34.190426 Z"
         id="path1780" /><path
         style="fill:#fef8d4;fill-opacity:1;stroke-width:0.264583"
         d="M 0.00109409,58.643093 0.05672296,58.681127 27.685148,84.441841 0.00461558,77.024864 Z"
         id="path1782" /><path
         style="fill:#feeaa1;fill-opacity:1;stroke-width:0.264583"
         d="M 0.00379903,77.024528 27.684751,84.441844 19.641372,130.64448 0.00849573,99.565358 Z"
         id="path1797" /><path
         style="fill:#fcd100;fill-opacity:1;stroke-width:0.264583"
         d="M 27.685103,84.439127 78.014389,53.498433 101.09224,68.662957 Z"
         id="path1811"
         sodipodi:nodetypes="cccc" /><path
         style="fill:#fddf65;fill-opacity:1;stroke-width:0.264583"
         d="M 78.014173,53.500138 147.66385,34.226592 101.09289,68.663174 Z"
         id="path1909"
         sodipodi:nodetypes="cccc" /><path
         style="fill:#ffbf02;fill-opacity:1;stroke-width:0.264583"
         d="M 101.09483,68.662515 147.69881,34.20048 269.948,0.00936635 Z"
         id="path1911" /><path
         style="fill:#fdb400;fill-opacity:1;stroke-width:0.264583"
         d="M 27.686262,84.443172 101.08539,68.671794 19.642664,130.64614 Z"
         id="path1928" /><path
         style="fill:#fccc06;fill-opacity:1;stroke-width:0.264583"
         d="M 19.643152,130.64575 101.09429,68.664232 269.95308,0.00647167 Z"
         id="path1946" /><path
         style="fill:#fdcf00;fill-opacity:1;stroke-width:0.264583"
         d="M 19.64159,130.64574 0.00783221,99.567594 v 18.508746 z"
         id="path1965" /><path
         style="fill:#fdc605;fill-opacity:1;stroke-width:0.264583"
         d="M 19.639378,130.64709 0.00755364,118.0784 v 8.75931 z"
         id="path1967" /><path
         style="fill:#fcd403;fill-opacity:1;stroke-width:0.264583"
         d="M 19.643237,130.64723 0.00665738,126.83847 v 25.25804 z"
         id="path1988" /><path
         style="fill:#fe96cc;fill-opacity:1;stroke-width:0.264583"
         d="M 19.642833,130.64917 62.863163,244.98028 0.00648378,182.10546 v -30.01364 z"
         id="path2010" /><path
         style="fill:#d091cf;fill-opacity:1;stroke-width:0.264583"
         d="m 19.644585,130.64814 43.248635,114.35951 87.0344,9.1643 z"
         id="path2033" /><path
         style="fill:#fe4350;fill-opacity:1;stroke-width:0.264583"
         d="m 19.645248,130.64761 130.285002,123.52397 2.69336,-77.07516 z"
         id="path2035" /><path
         style="fill:#fcd244;fill-opacity:1;stroke-width:0.264583"
         d="M 19.642552,130.64504 158.80514,58.022455 219.30519,61.723912 Z"
         id="path2037"
         sodipodi:nodetypes="cccc" /><path
         style="fill:#fdc600;fill-opacity:1;stroke-width:0.264583"
         d="M 158.81125,58.019976 269.96215,0.00135247 219.30766,61.725701 Z"
         id="path2039" /><path
         style="fill:#fc8f00;fill-opacity:1;stroke-width:0.264583"
         d="M 219.30912,61.726865 269.9635,0.00270898 279.33507,69.608495 v 25.60533 z"
         id="path2041" /><path
         style="fill:#fbb400;fill-opacity:1;stroke-width:0.264583"
         d="M 279.33401,69.592417 269.9649,0.00304407 h 0.61841 l 8.75043,15.15617793 z"
         id="path2069" /><path
         style="fill:#fd8301;fill-opacity:1;stroke-width:0.264583"
         d="M 279.33422,15.153633 V 4.6511373 l -8.74993,-4.64707586 z"
         id="path2071" /><path
         style="fill:#fbc503;fill-opacity:1;stroke-width:0.264583"
         d="M 279.33433,4.6461473 V 0.00423908 h -8.74911 z"
         id="path2073" /><path
         style="fill:#fcb701;fill-opacity:1;stroke-width:0.264583"
         d="M 19.642009,130.64778 219.3077,61.726807 112.96515,136.22777 Z"
         id="path2104" /><path
         style="fill:#feb26f;fill-opacity:1;stroke-width:0.264583"
         d="M 112.9669,136.22892 219.30921,61.727315 249.97015,125.13122 Z"
         id="path2106" /><path
         style="fill:#fa6401;fill-opacity:1;stroke-width:0.264583"
         d="m 219.31009,61.728818 60.02458,33.4872 v 10.718602 z"
         id="path2139" /><path
         style="fill:#fc8901;fill-opacity:1;stroke-width:0.264583"
         d="M 249.97159,125.13131 219.30981,61.728661 279.3339,105.93748 v 29.89919 z"
         id="path2173" /><path
         style="fill:#f96301;fill-opacity:1;stroke-width:0.264583"
         d="m 19.649035,130.64862 93.322845,5.58234 39.65974,40.93911 z"
         id="path2208"
         sodipodi:nodetypes="cccc" /><path
         style="fill:#fc9300;fill-opacity:1;stroke-width:0.264583"
         d="m 112.9732,136.22949 85.70743,17.23963 -46.0477,23.70293 z"
         id="path2210" /><path
         style="fill:#fa7c2d;fill-opacity:1;stroke-width:0.264583"
         d="m 112.9776,136.22868 136.99332,-11.09667 -51.2896,28.337 z"
         id="path2247" /><path
         style="fill:#fc931e;fill-opacity:1;stroke-width:0.264583"
         d="m 152.62259,177.1691 97.34983,-52.0363 29.42946,23.35019 -0.009,3.48054 z"
         id="path2285" /><path
         style="fill:#fcca92;fill-opacity:1;stroke-width:0.264583"
         d="m 249.9736,125.13248 29.35917,10.7109 0.064,12.6366 z"
         id="path2287" /><path
         style="fill:#fa5e01;fill-opacity:1;stroke-width:0.264583"
         d="m 279.3932,151.96448 v 18.5567 l -126.76675,6.65092 z"
         id="path2327" /><path
         style="fill:#fd606e;fill-opacity:1;stroke-width:0.264583"
         d="m 279.39232,170.52155 v 21.46294 L 152.62193,177.17854 Z"
         id="path2368" /><path
         style="fill:#df678b;fill-opacity:1;stroke-width:0.264583"
         d="m 152.61555,177.17876 126.77712,14.80844 v 0.6138 l -39.29764,38.3756 z"
         id="path2370"
         sodipodi:nodetypes="ccccc" /><path
         style="fill:#cd76c8;fill-opacity:1;stroke-width:0.264583"
         d="m 152.62057,177.18463 87.47133,53.79571 -90.1642,23.18454 z"
         id="path2413" /><path
         style="fill:#912771;fill-opacity:1;stroke-width:0.264583"
         d="m 240.09179,230.97932 39.30048,-38.37534 -13.20956,83.36598 z"
         id="path2457" /><path
         style="fill:#ad0168;fill-opacity:1;stroke-width:0.264583"
         d="m 279.39179,192.61735 v 101.57373 l -13.20675,-18.2199 z"
         id="path2459" /><path
         style="fill:#c62ba1;fill-opacity:1;stroke-width:0.264583"
         d="m 266.18422,275.97213 13.20839,18.22244 v 16.34284 z"
         id="path2505" /><path
         style="fill:#d9018a;fill-opacity:1;stroke-width:0.264583"
         d="m 266.18245,275.97237 13.2104,34.56885 v 121.25936 h -42.13067 z"
         id="path2507" /><path
         style="fill:#c062bb;fill-opacity:1;stroke-width:0.264583"
         d="M 266.17943,275.97044 237.26021,431.80156 231.76906,320.54337 Z"
         id="path2555" /><path
         style="fill:#cf95d5;fill-opacity:1;stroke-width:0.264583"
         d="m 231.75401,320.55943 5.50438,111.2421 H 134.70443 Z"
         id="path2557" /><path
         style="fill:#32014d;fill-opacity:1;stroke-width:0.264583"
         d="M 134.70053,431.8005 97.247235,354.6612 18.935795,411.25177 Z"
         id="path2607" /><path
         style="fill:#012599;fill-opacity:1;stroke-width:0.264583"
         d="M 134.69659,431.80071 H 0.00167949 V 414.5313 L 18.99425,411.25925 Z"
         id="path2609" /><path
         style="fill:#054f96;fill-opacity:1;stroke-width:0.264583"
         d="M 0.00126769,414.53186 V 392.4976 L 97.247225,354.65858 18.980394,411.25872 Z"
         id="path2611" /><path
         style="fill:#003f89;fill-opacity:1;stroke-width:0.264583"
         d="M 0.00244656,392.49675 V 374.60928 L 29.196413,357.75413 97.249448,354.65601 Z"
         id="path2613"
         sodipodi:nodetypes="ccccc" /><path
         style="fill:#0074bc;fill-opacity:1;stroke-width:0.264583"
         d="M 0.00215588,374.60623 V 343.84175 L 29.1978,357.73532 Z"
         id="path2667" /><path
         style="fill:#7ed5f1;fill-opacity:1;stroke-width:0.264583"
         d="M 0.00383132,343.84215 V 329.39627 L 29.209457,357.74082 Z"
         id="path2669" /><path
         style="fill:#00a7ec;fill-opacity:1;stroke-width:0.264583"
         d="M 0.00480833,329.39479 V 302.0981 l 97.24677967,52.55643 -68.053884,3.09634 z"
         id="path2671" /><path
         style="fill:#b6b8e7;fill-opacity:1;stroke-width:0.264583"
         d="m 0.00455802,302.0977 v -20.08254 l 45.05418898,9.5195 52.207213,63.12823 z"
         id="path2673" /><path
         style="fill:#c3d3f2;fill-opacity:1;stroke-width:0.264583"
         d="M 0.00609237,282.01466 V 197.45674 L 45.049225,291.52905 Z"
         id="path2675" /><path
         style="fill:#9699dc;fill-opacity:1;stroke-width:0.264583"
         d="M 0.00700862,197.45835 V 182.10514 L 62.944099,245.0835 45.059224,291.53302 Z"
         id="path2734" /><path
         style="fill:#a790d5;fill-opacity:1;stroke-width:0.264583"
         d="M 45.058356,291.53471 62.96942,245.01669 97.258501,354.65398 Z"
         id="path2736" /><path
         style="fill:#dc9bd8;fill-opacity:1;stroke-width:0.264583"
         d="M 62.898069,245.00701 149.9251,254.17374 97.254379,354.6516 Z"
         id="path2738" /><path
         style="fill:#fdbeda;fill-opacity:1;stroke-width:0.264583"
         d="M 149.92801,254.16951 240.09187,230.98205 97.246833,354.66133 Z"
         id="path2740" /><path
         style="fill:#c88dd3;fill-opacity:1;stroke-width:0.264583"
         d="M 97.24801,354.66139 240.09203,230.98265 205.5527,290.0204 Z"
         id="path2742" /><path
         style="fill:#861b9a;fill-opacity:1;stroke-width:0.264583"
         d="M 97.249989,354.66205 205.54927,290.06588 134.70345,431.80243 Z"
         id="path2744" /><path
         style="fill:#923fa7;fill-opacity:1;stroke-width:0.264583"
         d="M 134.70412,431.8019 231.75863,320.54699 205.57189,290.04381 Z"
         id="path4327" /><path
         style="fill:#520081;fill-opacity:1;stroke-width:0.264583"
         d="m 231.76437,320.54871 8.32997,-89.5647 -34.53285,59.04642 z"
         id="path4329" /><path
         style="fill:#bc7bcc;fill-opacity:1;stroke-width:0.264583"
         d="m 231.7663,320.54506 34.41316,-44.57465 -26.08157,-44.97924 z"
         id="path4331" /></g></g></svg>
