<?xml version="1.0" encoding="UTF-8" standalone="no"?>
<!-- Created with Inkscape (http://www.inkscape.org/) -->

<svg
   width="280mm"
   height="430mm"
   viewBox="0 0 280 430"
   version="1.1"
   id="svg5"
   xml:space="preserve"
   inkscape:version="1.2.1 (9c6d41e410, 2022-07-14)"
   sodipodi:docname="FondoFlisolB.svg"
   xmlns:inkscape="http://www.inkscape.org/namespaces/inkscape"
   xmlns:sodipodi="http://sodipodi.sourceforge.net/DTD/sodipodi-0.dtd"
   xmlns="http://www.w3.org/2000/svg"
   xmlns:svg="http://www.w3.org/2000/svg"><sodipodi:namedview
     id="namedview7"
     pagecolor="#ffffff"
     bordercolor="#000000"
     borderopacity="0.25"
     inkscape:showpageshadow="2"
     inkscape:pageopacity="0.0"
     inkscape:pagecheckerboard="0"
     inkscape:deskcolor="#d1d1d1"
     inkscape:document-units="mm"
     showgrid="false"
     inkscape:zoom="0.26503568"
     inkscape:cx="1313.0308"
     inkscape:cy="875.35384"
     inkscape:window-width="1366"
     inkscape:window-height="699"
     inkscape:window-x="0"
     inkscape:window-y="0"
     inkscape:window-maximized="1"
     inkscape:current-layer="layer1" /><defs
     id="defs2" /><g
     inkscape:label="Capa 1"
     inkscape:groupmode="layer"
     id="layer1"><g
       id="g11254"
       transform="matrix(0.99993302,0,0,0.99984733,-291.51512,0.00500726)"><rect
         style="fill:#d3ecec;fill-opacity:1;stroke-width:0.453922"
         id="rect1150"
         width="280"
         height="430"
         x="291.55341"
         y="-2.220446e-16" /><path
         style="fill:#97dde0;fill-opacity:1;stroke-width:0.264583"
         d="M 555.50482,-0.00500802 H 291.53465 V 364.44492 l 82.11229,-12.57848 79.32669,-140.28624 -9.71149,-30.17544 c 0,0 -36.08085,-65.07123 -26.61034,-93.855417 9.47051,-28.784182 35.60881,-40.967647 70.96173,-53.777179 35.35291,-12.809533 61.67009,-12.928783 61.67009,-12.928783 z"
         id="path2586" /><path
         style="fill:#00476f;fill-opacity:1;stroke-width:0.264583"
         d="M 486.75573,430.01559 H 291.68337 V 332.61 c 0,0 24.50789,-0.24048 38.99772,-27.04055 14.48983,-26.80006 27.36658,-79.16899 57.41894,-103.68138 30.05235,-24.51239 50.6937,-27.01262 81.0865,-12.08597 30.39281,14.92666 2.98749,65.24658 -15.50127,84.17759 -18.48877,18.93099 -67.84499,61.1954 -43.45239,103.43099 24.3926,42.2356 76.52286,52.60491 76.52286,52.60491 z"
         id="path3052" /><path
         style="fill:#65789f;fill-opacity:1;stroke-width:0.264583"
         d="m 548.64095,0.14069826 h 22.87169 V 18.406031 c 0,0 -12.45426,4.762321 -20.89873,30.525954 -8.44449,25.763633 -5.06167,46.561893 -22.8895,54.794945 -17.82782,8.23306 -45.11749,-3.896717 -50.36442,-26.454424 -5.24692,-22.557703 10.14741,-45.287057 20.14514,-50.114271 9.99774,-4.827214 48.81641,-18.0905399 51.13582,-27.01753674 z"
         id="path3569" /><path
         style="fill:#d3ecec;fill-opacity:1;stroke-width:0.264583"
         d="M 342.48565,0.00370762 H 291.66792 V 61.78752 c 0,0 28.15058,-4.659688 39.57852,-21.303868 11.42794,-16.644182 13.63493,-25.577227 11.23921,-40.47994438 z"
         id="path4807" /><path
         style="fill:#97dde0;fill-opacity:1;stroke-width:0.264583"
         d="M 571.55044,197.84587 V 92.216867 c 0,0 -35.03945,20.937523 -33.69986,51.648843 1.33959,30.71132 33.69986,53.98016 33.69986,53.98016 z"
         id="path5440" /><ellipse
         style="fill:#769bb5;fill-opacity:1;stroke-width:0.264583"
         id="path6115"
         cx="416.81396"
         cy="97.739677"
         rx="18.137842"
         ry="13.798162" /><ellipse
         style="fill:#9fbfcb;fill-opacity:1;stroke-width:0.264583"
         id="path8860"
         cx="364.61484"
         cy="256.41428"
         rx="34.972767"
         ry="28.803944" /><ellipse
         style="fill:#97dde0;fill-opacity:1;stroke-width:0.264583"
         id="path8860-3"
         cx="470.27536"
         cy="354.16476"
         rx="34.972767"
         ry="28.803944" /><path
         style="fill:#65789f;fill-opacity:1;stroke-width:0.264583"
         d="m 346.96275,430.06065 h 73.34631 c 0,0 -7.11478,-17.02364 -11.13721,-33.57348 -4.02242,-16.54982 -22.54447,-36.34314 -40.15597,-29.98192 -17.6115,6.36119 -28.3997,28.30803 -22.05313,63.5554 z"
         id="path10738" /><ellipse
         style="fill:#9dbcc9;fill-opacity:1;stroke-width:0.264583"
         id="path9785"
         cx="334.23575"
         cy="402.44943"
         rx="16.6015"
         ry="13.928335" /></g></g></svg>
