<?xml version="1.0" encoding="UTF-8" standalone="no"?>
<!-- Created with Inkscape (http://www.inkscape.org/) -->

<svg
   width="27.940001cm"
   height="43.18cm"
   viewBox="0 0 279.40001 431.8"
   version="1.1"
   id="svg110603"
   xml:space="preserve"
   inkscape:version="1.2.2 (b0a8486541, 2022-12-01)"
   sodipodi:docname="FondoFlisolI.svg"
   xmlns:inkscape="http://www.inkscape.org/namespaces/inkscape"
   xmlns:sodipodi="http://sodipodi.sourceforge.net/DTD/sodipodi-0.dtd"
   xmlns="http://www.w3.org/2000/svg"
   xmlns:svg="http://www.w3.org/2000/svg"><sodipodi:namedview
     id="namedview110605"
     pagecolor="#ffffff"
     bordercolor="#000000"
     borderopacity="0.25"
     inkscape:showpageshadow="2"
     inkscape:pageopacity="0.0"
     inkscape:pagecheckerboard="0"
     inkscape:deskcolor="#d1d1d1"
     inkscape:document-units="mm"
     showgrid="false"
     inkscape:zoom="0.1767767"
     inkscape:cx="480.83261"
     inkscape:cy="724.07734"
     inkscape:window-width="1366"
     inkscape:window-height="699"
     inkscape:window-x="0"
     inkscape:window-y="0"
     inkscape:window-maximized="1"
     inkscape:current-layer="layer1"
     showguides="false" /><defs
     id="defs110600" /><g
     inkscape:label="Capa 1"
     inkscape:groupmode="layer"
     id="layer1"><g
       id="g118684"><path
         style="fill:#72e23e;stroke-width:0.264583;fill-opacity:1"
         d="M 6.8513853e-4,84.689028 V -7.308162e-4 H 82.501167 L 59.729335,55.0238 Z"
         id="path1672" /><path
         style="fill:#7be3ff;stroke-width:0.264583;fill-opacity:1"
         d="m 82.50231,7.0247668e-4 h 87.8136 L 59.738905,55.017153 Z"
         id="path1674" /><path
         style="fill:#86fb16;stroke-width:0.264583;fill-opacity:1"
         d="M 0.00102545,84.691304 60.356392,54.701442 81.10915,104.78463 31.022919,150.35059 0.00510305,125.17492 Z"
         id="path1683" /><path
         style="fill:#cbfe51;stroke-width:0.264583;fill-opacity:1"
         d="M 81.110205,104.78434 60.358072,54.7092 102.16288,33.916728 Z"
         id="path1693" /><path
         style="fill:#c1ffec;stroke-width:0.264583;fill-opacity:1"
         d="M 81.109798,104.78538 144.14934,89.28447 105.96745,32.015856 102.16347,33.909997 Z"
         id="path1695" /><path
         style="fill:#0b38e6;stroke-width:0.264583;fill-opacity:1"
         d="m 105.96672,32.017028 4.15092,-2.06611 62.31142,5.640691 47.14345,109.439461 -75.42159,-55.745843 z"
         id="path1707"
         sodipodi:nodetypes="cccccc" /><path
         style="fill:#7ef783;stroke-width:0.264583;fill-opacity:1"
         d="m 170.31295,2.7453166e-4 h 18.43296 L 172.43005,35.591993 110.12036,29.95251 Z"
         id="path1816" /><path
         style="fill:#5bc153;stroke-width:0.264583;fill-opacity:1"
         d="m 172.42974,35.592729 37.52028,31.93349 -15.93548,-67.52641278662 h -5.2724 z"
         id="path1830" /><path
         style="fill:#489b7d;stroke-width:0.264583;fill-opacity:1"
         d="M 209.95124,67.526259 194.01614,0.00174812 h 26.97015 z"
         id="path1845" /><path
         style="fill:#50ad9e;stroke-width:0.264583;fill-opacity:1"
         d="M 209.95182,67.52556 220.98612,5.7328593e-4 h 23.9227 z"
         id="path1847" /><path
         style="fill:#9cff8a;stroke-width:0.264583;fill-opacity:1"
         d="M 209.95085,67.51617 244.90934,6.0962116e-4 h 4.13915 L 246.50562,142.8967 Z"
         id="path1849" /><path
         style="fill:#786bd5;stroke-width:0.264583;fill-opacity:1"
         d="M 246.50575,142.89475 249.04918,-1.0093053e-4 h 26.25721 z"
         id="path1867" /><path
         style="fill:#082965;stroke-width:0.264583;fill-opacity:1"
         d="M 246.5062,142.89837 275.30647,-8.0744424e-6 h 4.10728 V 110.59428 Z"
         id="path1869" /><path
         style="fill:#54afff;stroke-width:0.264583;fill-opacity:1"
         d="M 219.57294,145.03151 172.42905,35.592231 209.93833,67.526357 Z"
         id="path1889" /><path
         style="fill:#b9ff2e;stroke-width:0.264583;fill-opacity:1"
         d="m 249.84595,190.67843 -30.27212,-45.64826 -9.63678,-77.514338 0.0156,0.0062 36.55498,75.376618 z"
         id="path1891" /><path
         style="fill:#ffff3e;stroke-width:0.264583;fill-opacity:1"
         d="m 246.50163,142.90173 32.9126,-32.30766 v 30.30891 l -6.43205,3.93745 z"
         id="path1913" /><path
         style="fill:#feffb4;stroke-width:0.264583;fill-opacity:1"
         d="m 249.84677,190.67775 -3.33869,-47.77538 26.47215,1.94092 z"
         id="path1936" /><path
         style="fill:#ffe637;stroke-width:0.264583;fill-opacity:1"
         d="m 279.41413,140.9059 v 43.69708 l -29.56871,6.07476 23.1356,-45.83692 z"
         id="path1940" /><path
         style="fill:#61c8d1;stroke-width:0.264583;fill-opacity:1"
         d="m 144.1486,89.28469 75.43649,55.75141 -86.82614,8.45091 -51.651361,-48.70164 z"
         id="path1965" /><path
         style="fill:#e1ff25;stroke-width:0.264583;fill-opacity:1"
         d="m 81.10725,104.78684 51.64911,48.69908 -91.31307,46.32669 z"
         id="path1991" /><path
         style="fill:#a2ffae;stroke-width:0.264583;fill-opacity:1"
         d="M 81.105747,104.78774 41.434384,199.8225 67.726781,299.46039 10.208808,204.27002 Z"
         id="path1993" /><path
         style="fill:#80e817;stroke-width:0.264583;fill-opacity:1"
         d="M 31.022731,150.35147 81.10458,104.78891 10.209261,204.28966 Z"
         id="path2021" /><path
         style="fill:#5abd2f;stroke-width:0.264583;fill-opacity:1"
         d="M 0.0045661,125.17683 31.022909,150.35189 10.213431,204.27894 -0.00487696,179.63164 Z"
         id="path2050" /><path
         style="fill:#4fa67b;stroke-width:0.264583;fill-opacity:1"
         d="m 10.213832,204.28142 -10.21938318,-24.6471 v 39.32492 z"
         id="path2080" /><path
         style="fill:#feff69;stroke-width:0.264583;fill-opacity:1"
         d="m 41.433591,199.82186 91.323179,-46.33618 -5.6355,80.58645 z"
         id="path2111" /><path
         style="fill:#ef4b34;stroke-width:0.264583;fill-opacity:1"
         d="m 127.1238,234.07374 5.6339,-80.5853 73.08587,47.36878 z"
         id="path2113" /><path
         style="fill:#63c88e;stroke-width:0.264583;fill-opacity:1"
         d="m 132.75818,153.48795 86.81974,-8.45138 30.2679,45.6428 -44.00323,10.17803 z"
         id="path2146" /><path
         style="fill:#e2485f;stroke-width:0.264583;fill-opacity:1"
         d="m 205.8484,200.85696 43.99655,-10.17786 -30.4183,48.49428 z"
         id="path2180"
         sodipodi:nodetypes="cccc" /><path
         style="fill:#f16610;stroke-width:0.264583;fill-opacity:1"
         d="m 249.84584,190.67977 29.56852,-6.07544 v 166.47862 l -49.28717,-47.93144 -10.69981,-63.97685 z"
         id="path2182" /><path
         style="fill:#f99f0b;stroke-width:0.264583;fill-opacity:1"
         d="m 205.84839,200.85582 13.56941,38.29889 -92.29421,-5.08062 z"
         id="path2218" /><path
         style="fill:#e33200;stroke-width:0.264583;fill-opacity:1"
         d="m 127.12483,234.0746 92.29332,5.08126 0.008,0.0178 -36.79889,42.94476 -91.94679,35.58844 z"
         id="path2220" /><path
         style="fill:#bdfd16;stroke-width:0.264583;fill-opacity:1"
         d="m 41.433845,199.82213 85.692765,34.25062 -59.394458,65.39796 z"
         id="path2258" /><path
         style="fill:#56b386;stroke-width:0.264583;fill-opacity:1"
         d="M 67.731726,299.47126 127.12421,234.07527 90.68655,317.7028 Z"
         id="path2260" /><path
         style="fill:#8bfffe;stroke-width:0.264583;fill-opacity:1"
         d="M 67.730374,299.46885 10.216842,204.28243 9.7330701,204.96971 33.413334,292.35593 Z"
         id="path2300" /><path
         style="fill:#0635bc;stroke-width:0.264583;fill-opacity:1"
         d="M 9.7330539,204.97284 33.428807,292.37241 19.828658,365.69988 Z"
         id="path2302" /><path
         style="fill:#1d5ffd;stroke-width:0.264583;fill-opacity:1"
         d="M -0.0050869,218.95949 9.733926,204.97139 19.828429,365.70152 -3.8757225e-4,354.57 Z"
         id="path2304" /><path
         style="fill:#3d8fc1;stroke-width:0.264583;fill-opacity:1"
         d="m 19.831033,365.7034 13.599841,-73.34321 34.300424,7.108 z"
         id="path2306" /><path
         style="fill:#073a4f;stroke-width:0.264583;fill-opacity:1"
         d="M 19.83159,365.70446 67.730591,299.47002 54.027966,431.79058 h -5.139737 z"
         id="path2350" /><path
         style="fill:#000a7d;stroke-width:0.264583;fill-opacity:1"
         d="m 2.0186106e-4,354.57161 v 77.22754 H 48.894391 L 19.830637,365.70218 Z"
         id="path2352" /><path
         style="fill:#2b6f7b;stroke-width:0.264583;fill-opacity:1"
         d="m 54.029527,431.79158 h 6.301362 L 85.0638,399.52509 67.730935,299.4702 Z"
         id="path2398" /><path
         style="fill:#0108a5;stroke-width:0.264583;fill-opacity:1"
         d="M 60.331648,431.79232 H 81.702504 L 156.16618,411.1395 85.063903,399.52604 Z"
         id="path2445" /><path
         style="fill:#010080;stroke-width:0.264583;fill-opacity:1"
         d="m 81.70733,431.79288 h 54.93664 l 19.52574,-20.65354 z"
         id="path2493" /><path
         style="fill:#180bf9;stroke-width:0.264583;fill-opacity:1"
         d="m 136.64412,431.79378 h 11.72001 l 7.81002,-20.65711 z"
         id="path2495" /><path
         style="fill:#7436eb;stroke-width:0.264583;fill-opacity:1"
         d="m 148.36542,431.79357 h 13.85161 l -6.04346,-20.65153 z"
         id="path2545" /><path
         style="fill:#600081;stroke-width:0.264583;fill-opacity:1"
         d="m 162.21799,431.79304 h 7.37382 l -13.41863,-20.65575 z"
         id="path2547"
         sodipodi:nodetypes="cccc" /><path
         style="fill:#b738e9;fill-opacity:1;stroke-width:0.264583"
         d="m 169.59231,431.79285 h 38.13092 l -51.54949,-20.65592 z"
         id="path2549"
         sodipodi:nodetypes="cccc" /><path
         style="fill:#800190;fill-opacity:1;stroke-width:0.264583"
         d="m 207.7227,431.79248 h 16.63642 l -15.94962,-31.39871 -52.23548,10.74121 z"
         id="path2551" /><path
         style="fill:#2768bc;stroke-width:0.264583;fill-opacity:1"
         d="M 85.064318,399.52583 67.731999,299.47195 90.684039,317.70137 Z"
         id="path2605" /><path
         style="fill:#420fc3;stroke-width:0.264583;fill-opacity:1"
         d="m 85.064379,399.52535 5.620795,-81.82207 65.490046,93.43622 z"
         id="path2607" /><path
         style="fill:#8d011c;stroke-width:0.264583;fill-opacity:1"
         d="M 156.17361,411.13694 90.68623,317.70531 182.63949,282.13317 Z"
         id="path2663" /><path
         style="fill:#cf0114;stroke-width:0.264583;fill-opacity:1"
         d="m 156.17496,411.13622 26.47207,-129.03906 36.78008,-42.92239 z"
         id="path2720" /><path
         style="fill:#cb0101;stroke-width:0.264583;fill-opacity:1"
         d="m 156.17647,411.13675 63.25048,-171.96128 10.70012,63.97787 z"
         id="path2778" /><path
         style="fill:#d91762;stroke-width:0.264583;fill-opacity:1"
         d="m 156.17745,411.13516 73.95034,-107.98214 -21.71884,97.24154 z"
         id="path2837" /><path
         style="fill:#e03a01;stroke-width:0.264583;fill-opacity:1"
         d="m 224.36083,431.79124 h 5.34524 l 0.42281,-128.63679 -21.71897,97.24054 z"
         id="path2897" /><path
         style="fill:#fca027;stroke-width:0.264583;fill-opacity:1"
         d="m 229.70785,431.79134 0.42176,-128.63814 49.2833,47.92967 v 71.2774 l -9.43798,9.43798 z"
         id="path2958" /><path
         style="fill:#facf57;stroke-width:0.264583;fill-opacity:1"
         d="m 269.97485,431.79732 9.43676,-9.43676 v 9.43644 z"
         id="path2960" /></g></g></svg>
