<?xml version="1.0" encoding="UTF-8" standalone="no"?>
<!-- Created with Inkscape (http://www.inkscape.org/) -->

<svg
   width="27.940001cm"
   height="43.18cm"
   viewBox="0 0 279.40001 431.8"
   version="1.1"
   id="svg110603"
   xml:space="preserve"
   inkscape:version="1.2.2 (b0a8486541, 2022-12-01)"
   sodipodi:docname="FondoFlisolK.svg"
   xmlns:inkscape="http://www.inkscape.org/namespaces/inkscape"
   xmlns:sodipodi="http://sodipodi.sourceforge.net/DTD/sodipodi-0.dtd"
   xmlns="http://www.w3.org/2000/svg"
   xmlns:svg="http://www.w3.org/2000/svg"><sodipodi:namedview
     id="namedview110605"
     pagecolor="#ffffff"
     bordercolor="#000000"
     borderopacity="0.25"
     inkscape:showpageshadow="2"
     inkscape:pageopacity="0.0"
     inkscape:pagecheckerboard="0"
     inkscape:deskcolor="#d1d1d1"
     inkscape:document-units="mm"
     showgrid="false"
     inkscape:zoom="0.1767767"
     inkscape:cx="475.17575"
     inkscape:cy="1023.8906"
     inkscape:window-width="1366"
     inkscape:window-height="699"
     inkscape:window-x="0"
     inkscape:window-y="0"
     inkscape:window-maximized="1"
     inkscape:current-layer="layer1"
     showguides="false" /><defs
     id="defs110600" /><g
     inkscape:label="Capa 1"
     inkscape:groupmode="layer"
     id="layer1"><g
       id="g64555"><path
         style="fill:#ba849e;fill-opacity:1;stroke-width:0.264583"
         d="M 117.97183,-0.03800263 H 279.41254 V 64.932191 Z"
         id="path1717" /><path
         style="fill:#dab3c6;fill-opacity:1;stroke-width:0.264583"
         d="M -0.01160169,-0.01160169 H 118.09925 L 279.37819,64.909535 V 84.863346 L -0.05919602,32.20227 Z"
         id="path3897" /><path
         style="fill:#9f6484;fill-opacity:1;stroke-width:0.264583"
         d="M 0.00124346,32.214677 279.40079,84.868797 V 100.06617 L 0.01059367,89.089845 Z"
         id="path5202" /><path
         style="fill:#f1dceb;fill-opacity:1;stroke-width:0.264583"
         d="M 0.00752538,89.084159 279.40021,100.06749 v 4.73645 L 0.00456759,112.78057 Z"
         id="path9544" /><path
         style="fill:#9c789c;fill-opacity:1;stroke-width:0.264583"
         d="M 4.4005764e-4,112.78068 279.3991,104.80386 v 16.28709 L -4.1986993e-4,178.96478 Z"
         id="path12575" /><path
         style="fill:#ecd7e6;fill-opacity:1;stroke-width:0.264583"
         d="M 9.5682063e-4,178.96646 31.743136,172.42833 -0.00123325,186.324 Z"
         id="path12710" /><path
         style="fill:#ecd7e6;fill-opacity:1;stroke-width:0.264583"
         d="M 31.727608,172.41956 279.4001,121.09338 v 6.72509 l -114.68899,32.1343 z"
         id="path16500" /><path
         style="fill:#9e83b6;fill-opacity:1;stroke-width:0.264583"
         d="M -5.0465301e-4,186.32365 31.749394,172.42998 -0.0014534,223.12669 Z"
         id="path16514" /><path
         style="fill:#504485;fill-opacity:1;stroke-width:0.264583"
         d="M 0.00155029,223.12574 5.8726726e-4,236.2376 31.76038,172.41555 Z"
         id="path18571"
         sodipodi:nodetypes="cccc" /><path
         style="fill:#d0d6ee;fill-opacity:1;stroke-width:0.264583"
         d="M -2.3415883e-4,236.23766 31.753606,172.4271 45.277338,226.15803 1.7128479e-4,260.39459 Z"
         id="path22388" /><path
         style="fill:#9e9dc5;fill-opacity:1;stroke-width:0.264583"
         d="M 45.277889,226.15725 31.753571,172.42868 31.752778,172.4186 233.8575,283.24756 Z"
         id="path23134"
         sodipodi:nodetypes="ccccc" /><path
         style="fill:#c9aecd;fill-opacity:1;stroke-width:0.264583"
         d="M 31.757199,172.41902 164.71233,159.95393 233.85476,283.24669 Z"
         id="path25207" /><path
         style="fill:#9d83a8;fill-opacity:1;stroke-width:0.264583"
         d="m 164.70877,159.95407 114.69292,-32.13468 v 95.89965 l -45.54402,59.52829 z"
         id="path26022" /><path
         style="fill:#d2d8f0;fill-opacity:1;stroke-width:0.264583"
         d="m 279.40018,223.72199 v 42.10745 l -45.54263,17.41932 z"
         id="path27614" /><path
         style="fill:#707ec1;fill-opacity:1;stroke-width:0.264583"
         d="m 233.85742,283.25058 45.54229,-17.42112 v 10.75119 z"
         id="path29395" /><path
         style="fill:#c8ceef;fill-opacity:1;stroke-width:0.264583"
         d="m 233.85722,283.25021 45.53367,-6.6643 v 4.90789 z"
         id="path32970" /><path
         style="fill:#8090c8;fill-opacity:1;stroke-width:0.264583"
         d="m 233.85647,283.24908 45.54432,-1.75559 V 292.062 Z"
         id="path37540" /><path
         style="fill:#7390cb;fill-opacity:1;stroke-width:0.264583"
         d="m 233.85731,283.25085 45.54076,8.81459 v 17.96317 z"
         id="path43124" /><path
         style="fill:#415997;fill-opacity:1;stroke-width:0.264583"
         d="m 233.85867,283.25074 45.54355,26.7807 v 35.81054 z"
         id="path47274" /><path
         style="fill:#6174b8;fill-opacity:1;stroke-width:0.264583"
         d="M 233.8521,283.2482 45.277653,226.15856 8.6800266e-4,260.39552 v 32.58898 z"
         id="path50114" /><path
         style="fill:#7290cd;fill-opacity:1;stroke-width:0.264583"
         d="M 233.85408,283.24841 5.0465301e-4,292.98402 v 9.80602 L 65.991692,314.85469 Z"
         id="path51031" /><path
         style="fill:#6986c0;fill-opacity:1;stroke-width:0.264583"
         d="M 0.00401948,302.79493 65.981727,314.85564 109.88089,431.80542 h -8.50568 L -0.07002157,336.24562 Z"
         id="path52544" /><path
         style="fill:#5467ac;fill-opacity:1;stroke-width:0.264583"
         d="M 101.367,431.79999 H 92.338122 L 3.0731354e-4,378.48873 v -42.17466 z"
         id="path53731" /><path
         style="fill:#7180b7;fill-opacity:1;stroke-width:0.264583"
         d="M 5.9347099e-4,378.49164 92.323781,431.79446 H 87.045849 L 0.01890984,390.97055 Z"
         id="path55727" /><path
         style="fill:#708fcd;fill-opacity:1;stroke-width:0.264583"
         d="M 87.042595,431.79558 H 0.00529683 v -40.8349 z"
         id="path57407" /><path
         style="fill:#384e8a;fill-opacity:1;stroke-width:0.264583"
         d="M 65.983516,314.85625 233.85694,283.25 123.34635,431.80116 h -13.46688 z"
         id="path57631" /><path
         style="fill:#7a98ce;fill-opacity:1;stroke-width:0.264583"
         d="m 279.39894,345.84237 v 25.41559 l -105.34381,-7.61003 59.8014,-80.39756 z"
         id="path58278" /><path
         style="fill:#273e8a;fill-opacity:1;stroke-width:0.264583"
         d="m 174.04837,363.64889 105.35073,7.60941 v 21.86112 z"
         id="path59860" /><path
         style="fill:#6a88c0;fill-opacity:1;stroke-width:0.264583"
         d="m 174.04843,363.64936 105.35064,29.46665 v 38.70698 h -18.55815 z"
         id="path62331" /><path
         style="fill:#5872af;fill-opacity:1;stroke-width:0.264583"
         d="M 260.80867,431.80007 H 183.97895 L 174.04679,363.6514 Z"
         id="path63533" /><path
         style="fill:#7694ca;fill-opacity:1;stroke-width:0.264583"
         d="m 183.97873,431.79925 h -60.63386 l 50.70042,-68.1473 z"
         id="path64210" /></g></g></svg>
